<svg width="513" height="192" viewBox="0 0 513 192" fill="none" xmlns="http://www.w3.org/2000/svg">
<path d="M265.28 97.0802C265.144 93.432 264.506 90.2251 263.367 87.4549C262.224 84.6881 260.713 82.3895 258.834 80.566C256.954 78.7413 254.807 77.3929 252.39 76.5127C249.973 75.636 247.488 75.1959 244.939 75.1959C239.703 75.1959 235.17 77.1198 231.344 80.9699C227.517 84.82 225.334 90.1901 224.799 97.0802H265.28ZM223.993 113.695C224.396 121.263 226.577 127.273 230.539 131.731C234.497 136.188 239.703 138.417 246.147 138.417C250.442 138.417 254.234 137.439 257.526 135.48C260.814 133.523 262.929 130.787 263.87 127.273H290.857C287.767 137.54 282.399 145.444 274.745 150.981C267.092 156.521 257.96 159.289 247.356 159.289C214.326 159.289 197.812 141.187 197.812 104.984C197.812 97.2833 198.884 90.3267 201.034 84.1114C203.18 77.8984 206.301 72.561 210.398 68.1027C214.493 63.6443 219.493 60.2343 225.403 57.8692C231.309 55.5075 238.091 54.3237 245.744 54.3237C261.051 54.3237 272.63 59.2572 280.485 69.116C288.341 78.9783 292.267 93.8383 292.267 113.695H223.993Z" fill="black"/>
<path d="M361.548 107.818C360.205 109.17 358.258 110.25 355.708 111.06C353.157 111.872 349.465 112.752 344.631 113.694C337.11 115.184 331.944 117.074 329.124 119.37C326.305 121.667 324.895 124.976 324.895 129.296C324.895 136.729 329.124 140.442 337.582 140.442C340.937 140.442 344.058 139.87 346.947 138.721C349.832 137.573 352.316 136.02 354.399 134.061C356.479 132.104 358.156 129.804 359.434 127.169C360.708 124.536 361.346 121.734 361.346 118.761L361.548 107.818ZM363.361 156.654C362.555 154.089 362.017 151.115 361.75 147.738C358.66 151.252 354.566 154.054 349.465 156.147C344.361 158.239 338.454 159.288 331.742 159.288C320.329 159.288 311.97 156.755 306.668 151.69C301.362 146.623 298.713 140.038 298.713 131.932C298.713 124.773 299.852 119.064 302.137 114.809C304.418 110.555 307.574 107.21 311.603 104.778C315.63 102.347 320.43 100.558 326.003 99.4095C331.572 98.262 337.649 97.2148 344.227 96.2669C350.805 95.3248 355.236 94.0745 357.521 92.5195C359.802 90.968 360.944 88.4347 360.944 84.9208C360.944 81.6777 359.434 79.1456 356.413 77.3221C353.393 75.4975 349.329 74.5857 344.227 74.5857C338.186 74.5857 333.856 75.9376 331.238 78.639C328.622 81.3427 326.975 84.9208 326.305 89.3791H301.935C302.067 84.2472 302.907 79.5192 304.453 75.1951C305.995 70.8722 308.48 67.1586 311.904 64.0498C315.328 60.9433 319.791 58.5466 325.296 56.8562C330.801 55.1682 337.513 54.323 345.436 54.323C353.222 54.323 359.837 55.2032 365.274 56.9566C370.712 58.7148 375.074 61.2469 378.365 64.5553C381.654 67.8673 384.036 71.987 385.515 76.9159C386.991 81.8493 387.73 87.4214 387.73 93.6343V156.654H363.361Z" fill="black"/>
<path d="M453.185 54.3251C450.493 54.3251 447.871 54.4652 445.33 54.7337C442.777 55.0022 440.259 55.6442 437.776 56.6482C435.282 57.6639 432.868 59.1231 430.525 61.0143C428.169 62.9055 425.918 65.5322 423.772 68.9177V56.9517H399.208V156.649H425.385V104.781C425.385 88.7053 433.379 80.663 449.356 80.663C450.679 80.663 451.99 80.7202 453.313 80.8486V54.3251H453.185Z" fill="black"/>
<path d="M513 30.2777V156.65H486.814V81.2586H464.791V53.4147C468.26 53.2162 471.301 52.7971 473.922 52.1667C477.822 51.2199 481.012 49.7607 483.494 47.8006C485.977 45.851 487.857 43.4111 489.135 40.5043C490.41 37.6079 491.245 34.1991 491.652 30.2777H513Z" fill="black"/>
<mask id="mask0" mask-type="alpha" maskUnits="userSpaceOnUse" x="0" y="0" width="167" height="192">
<path d="M75.9984 0.19379C73.4168 0.353725 70.8491 0.747143 68.3394 1.38805C66.0478 1.97292 63.7783 2.65469 61.4937 3.27225C40.2152 8.82212 23.9654 21.1815 12.4263 40.02C2.00345 57.0315 -1.53658 75.4684 0.591382 95.1335C2.43972 112.212 10.0744 126.698 20.9359 139.602C30.5952 151.079 41.9788 160.58 54.46 168.83C67.4065 177.387 81.193 184.082 95.9774 188.719C99.6277 189.863 103.378 190.556 107.123 191.274C107.924 191.427 108.795 191.574 109.347 190.751C109.801 190.077 109.622 189.38 109.321 188.738C108.997 188.05 108.542 187.432 108.058 186.845C105.575 183.835 103.762 180.439 102.235 176.864C100.436 172.651 101.081 168.004 107.014 166.454C122.486 162.409 135.306 153.824 145.793 141.819C160.884 124.543 167.936 104.218 166.741 81.3102C165.474 57.0362 155.679 36.5855 137.397 20.5955C121.436 6.63673 102.888 0 82.199 0C80.1522 0 78.0869 0.065375 75.9984 0.19379Z" fill="white"/>
</mask>
<g mask="url(#mask0)">
<path d="M172.671 -5.83759V79.9263L148.767 79.7448C148.726 79.7448 148.686 79.7446 148.645 79.7443L148.523 79.7437C142.871 79.7437 137.323 81.2823 132.464 84.2009L126.631 87.7066L120.552 80.8165C120.062 80.2643 119.515 79.7624 118.92 79.3234C116.67 77.6622 113.913 76.9839 111.157 77.4112C108.4 77.8385 105.973 79.3199 104.323 81.5835L100.51 86.8135L95.3657 67.9131C94.463 64.5919 91.8315 62.0469 88.4922 61.2729C86.0765 60.7172 83.5888 61.1351 81.4864 62.4602C79.3839 63.784 77.922 65.8527 77.3662 68.2832L72.7262 88.5868L69.8696 75.6916C69.0469 71.9874 66.2924 69.0082 62.6828 67.919C60.0083 67.11 57.1853 67.3971 54.7302 68.728C52.2738 70.0577 50.4789 72.2687 49.676 74.9573L46.2717 86.3594L44.0126 79.4845C42.5936 75.1733 38.6103 72.2781 34.0979 72.2781H27.8463C24.6428 72.2781 22.0449 74.8907 22.0449 78.1151C22.0449 81.3395 24.6428 83.9522 27.8463 83.9522H33.2591L39.875 104.081C41.0817 107.743 45.0278 109.741 48.6735 108.527C50.8258 107.811 52.5001 106.076 53.151 103.893L59.5105 82.5945L65.8608 111.254C66.2657 113.08 67.3518 114.639 68.9228 115.643C70.0518 116.365 71.335 116.737 72.6427 116.737C73.1509 116.737 73.6649 116.681 74.1731 116.566C76.7698 115.982 78.8374 113.92 79.4408 111.3L86.609 79.9375L90.59 94.5581C91.2432 96.9642 92.7911 98.9698 94.9445 100.206C97.098 101.44 99.6008 101.756 101.992 101.1C104.004 100.547 105.792 99.3083 107.027 97.6156L112.83 89.6527L117.954 95.4582C121.652 99.6434 127.799 100.598 132.578 97.7288L138.411 94.2242C141.514 92.3599 145.005 91.3933 148.677 91.419L172.671 91.6005V197.23H-5.80176V-5.83759H172.671Z" fill="#00BF69"/>
</g>
</svg>
