<svg width="167" height="192" viewBox="0 0 167 192" fill="none" xmlns="http://www.w3.org/2000/svg">
<g id="Combined Shape Clipped">
<mask id="mask0" mask-type="alpha" maskUnits="userSpaceOnUse" x="0" y="0" width="167" height="192">
<g id="mask 2">
<path id="Vector" d="M75.9984 0.19379C73.4168 0.353725 70.8491 0.747143 68.3394 1.38805C66.0478 1.97292 63.7783 2.65469 61.4937 3.27225C40.2152 8.82212 23.9654 21.1815 12.4263 40.02C2.00345 57.0315 -1.53658 75.4684 0.591382 95.1335C2.43972 112.212 10.0744 126.698 20.9359 139.602C30.5952 151.079 41.9788 160.58 54.46 168.83C67.4065 177.387 81.193 184.082 95.9774 188.719C99.6277 189.863 103.378 190.556 107.123 191.274C107.924 191.427 108.795 191.574 109.347 190.751C109.801 190.077 109.622 189.38 109.321 188.738C108.997 188.05 108.542 187.432 108.058 186.845C105.575 183.835 103.762 180.439 102.235 176.864C100.436 172.651 101.081 168.004 107.014 166.454C122.486 162.409 135.306 153.824 145.793 141.819C160.884 124.543 167.936 104.218 166.741 81.3102C165.474 57.0362 155.679 36.5855 137.397 20.5955C121.436 6.63673 102.888 0 82.199 0C80.1522 0 78.0869 0.065375 75.9984 0.19379Z" fill="white"/>
</g>
</mask>
<g mask="url(#mask0)">
<path id="Combined Shape" d="M172.671 -5.83759V79.9263L148.767 79.7448C148.726 79.7448 148.686 79.7446 148.645 79.7443L148.523 79.7437C142.871 79.7437 137.323 81.2823 132.464 84.2009L126.631 87.7066L120.552 80.8165C120.062 80.2643 119.515 79.7624 118.92 79.3234C116.67 77.6622 113.913 76.9839 111.157 77.4112C108.4 77.8385 105.973 79.3199 104.323 81.5835L100.51 86.8135L95.3657 67.9131C94.463 64.5919 91.8315 62.0469 88.4922 61.2729C86.0765 60.7172 83.5888 61.1351 81.4864 62.4602C79.3839 63.784 77.922 65.8527 77.3662 68.2832L72.7262 88.5868L69.8696 75.6916C69.0469 71.9874 66.2924 69.0082 62.6828 67.919C60.0083 67.11 57.1853 67.3971 54.7302 68.728C52.2738 70.0577 50.4789 72.2687 49.676 74.9573L46.2717 86.3594L44.0126 79.4845C42.5936 75.1733 38.6103 72.2781 34.0979 72.2781H27.8463C24.6428 72.2781 22.0449 74.8907 22.0449 78.1151C22.0449 81.3395 24.6428 83.9522 27.8463 83.9522H33.2591L39.875 104.081C41.0817 107.743 45.0278 109.741 48.6735 108.527C50.8258 107.811 52.5001 106.076 53.151 103.893L59.5105 82.5945L65.8608 111.254C66.2657 113.08 67.3518 114.639 68.9228 115.643C70.0518 116.365 71.335 116.737 72.6427 116.737C73.1509 116.737 73.6649 116.681 74.1731 116.566C76.7698 115.982 78.8374 113.92 79.4408 111.3L86.609 79.9375L90.59 94.5581C91.2432 96.9642 92.7911 98.9698 94.9445 100.206C97.098 101.44 99.6008 101.756 101.992 101.1C104.004 100.547 105.792 99.3083 107.027 97.6156L112.83 89.6527L117.954 95.4582C121.652 99.6434 127.799 100.598 132.578 97.7288L138.411 94.2242C141.514 92.3599 145.005 91.3933 148.677 91.419L172.671 91.6005V197.23H-5.80176V-5.83759H172.671Z" fill="#00BF69"/>
</g>
</g>
</svg>
